<?xml version="1.0" standalone="no"?>
<!DOCTYPE svg PUBLIC "-//W3C//DTD SVG 20010904//EN"
 "http://www.w3.org/TR/2001/REC-SVG-20010904/DTD/svg10.dtd">
<svg version="1.0" xmlns="http://www.w3.org/2000/svg"
 width="288.000000pt" height="288.000000pt" viewBox="0 0 288.000000 288.000000"
 preserveAspectRatio="xMidYMid meet">
<metadata>
Created by potrace 1.14, written by Peter Selinger 2001-2017
</metadata>
<g transform="translate(0.000000,288.000000) scale(0.100000,-0.100000)"
fill="#000000" stroke="none">
<path d="M0 1440 l0 -1440 1440 0 1440 0 0 1440 0 1440 -1440 0 -1440 0 0
-1440z m1445 869 c11 -16 -3 -23 -19 -10 -15 13 -36 7 -36 -8 0 -5 15 -12 33
-17 43 -13 50 -50 12 -64 -27 -10 -65 1 -65 20 0 14 14 12 28 -2 9 -9 15 -9
23 -1 15 15 3 33 -22 33 -22 0 -34 22 -25 45 6 17 61 21 71 4z m117 -43 c19
-49 17 -69 -4 -48 -15 15 -58 16 -58 2 0 -5 -4 -10 -10 -10 -14 0 -12 19 8 68
10 24 23 41 31 40 7 -2 22 -25 33 -52z m109 44 c10 -6 19 -18 19 -27 0 -15 -2
-15 -18 0 -10 10 -24 17 -30 17 -22 0 -12 -20 19 -35 34 -18 38 -57 6 -63 -30
-6 -67 7 -67 23 0 20 10 19 25 -1 9 -13 16 -14 31 -6 17 10 16 12 -14 29 -58
33 -31 94 29 63z m-391 -44 c16 -25 30 -52 30 -62 0 -16 -1 -16 -19 0 -15 14
-24 15 -40 6 -12 -6 -21 -15 -21 -20 0 -6 -5 -10 -11 -10 -7 0 -8 14 -4 43 8
46 22 87 29 87 3 0 19 -20 36 -44z m525 13 c5 -5 -1 -9 -17 -9 -24 0 -27 -4
-30 -42 -2 -23 -9 -43 -16 -46 -11 -3 -12 6 -7 42 6 39 4 50 -11 62 -17 14
-15 15 26 9 25 -3 49 -10 55 -16z m-625 -55 c0 -63 -15 -71 -45 -21 l-20 32
-3 -42 c-2 -25 -8 -43 -15 -43 -15 0 -61 84 -55 102 3 8 13 -1 24 -22 l19 -35
3 38 c4 44 26 50 44 12 15 -33 30 -32 28 3 -3 38 -1 44 10 37 6 -3 10 -31 10
-61z m731 24 c9 -14 -7 -48 -22 -48 -6 0 -6 -7 1 -20 12 -22 5 -44 -11 -35 -5
4 -9 14 -9 24 0 10 -7 24 -15 31 -12 10 -16 8 -25 -14 -15 -41 -23 -31 -16 20
8 63 19 75 58 63 18 -5 35 -14 39 -21z m-903 -33 c-2 -5 -14 -8 -27 -6 -16 2
-22 -1 -19 -11 3 -7 16 -13 29 -14 44 -1 49 -4 49 -29 0 -28 -31 -49 -60 -40
-29 9 -24 24 8 22 18 -1 27 3 27 13 0 9 -10 14 -29 15 -36 0 -55 27 -36 50 14
17 63 17 58 0z m1000 -53 c2 -39 -1 -62 -8 -62 -5 0 -10 7 -10 15 0 21 -39 40
-53 26 -14 -14 -27 -14 -27 -1 0 16 72 91 84 87 6 -2 12 -31 14 -65z m-1084
-15 c32 -85 13 -89 -23 -4 -15 35 -17 47 -7 47 7 0 21 -19 30 -43z m1206 18
c0 -16 -53 -104 -61 -100 -4 3 -4 16 1 28 6 12 15 34 21 50 6 15 17 27 25 27
8 0 14 -2 14 -5z m-1268 -20 c-1 -5 -11 -10 -22 -10 -31 0 -18 -19 14 -19 16
-1 34 -9 39 -18 16 -24 -18 -60 -52 -56 -35 4 -39 27 -4 25 19 -1 28 3 28 12
0 10 -11 15 -35 15 -41 1 -54 31 -24 53 21 15 61 14 56 -2z m666 -78 c130 -6
209 -21 327 -62 236 -80 457 -256 594 -472 36 -58 38 -96 6 -101 -16 -2 -34
17 -80 85 -121 178 -288 314 -489 399 -120 51 -219 72 -367 81 l-109 6 -2
-654 -3 -654 -477 -3 c-263 -1 -478 1 -478 5 0 5 18 35 40 68 l40 60 362 5
363 5 3 28 3 27 -340 0 c-188 0 -341 2 -341 5 0 3 12 23 26 45 l27 40 298 0
c163 0 304 3 313 6 9 3 16 17 16 30 0 19 -5 24 -27 25 -16 0 -140 1 -278 1
-137 0 -256 3 -262 7 -15 8 30 81 50 81 7 1 118 1 247 0 130 0 244 2 253 6 26
10 22 52 -5 59 -13 3 -121 5 -241 3 -119 -2 -217 -1 -217 1 0 8 45 76 54 83 6
4 105 8 219 8 l208 0 -3 28 -3 27 -187 3 c-104 1 -188 5 -188 7 0 3 12 23 26
45 l27 40 164 0 164 0 -3 28 -3 27 -137 3 c-76 1 -138 6 -138 10 0 4 11 24 25
44 l25 37 113 3 112 3 0 25 c0 25 -2 25 -87 28 -49 1 -88 6 -88 10 0 4 11 24
25 44 24 35 28 37 88 40 59 3 62 4 62 28 0 22 -5 25 -43 28 l-42 3 30 43 c16
24 36 46 45 49 8 4 15 17 15 30 0 13 5 28 12 35 24 24 -3 24 -91 -2 -175 -50
-326 -140 -462 -276 -201 -200 -311 -446 -326 -730 -5 -103 7 -262 23 -305 5
-13 160 -15 1231 -15 674 0 1223 -4 1221 -8 -1 -4 -24 -27 -49 -50 l-46 -42
-1334 0 -1335 0 -49 50 -49 50 172 0 172 0 -5 22 c-38 178 -31 378 22 573 22
83 102 250 159 336 169 251 449 436 744 490 69 13 74 16 104 59 l31 45 3 -41
3 -41 117 -6z m652 27 c0 -51 11 -57 27 -13 7 17 17 28 22 24 12 -7 -33 -105
-48 -105 -13 0 -21 26 -21 68 l0 37 -22 -35 c-26 -42 -36 -25 -12 22 36 71 54
72 54 2z m-1411 -31 c40 -28 57 -61 25 -49 -26 10 -54 -3 -54 -25 0 -17 -19
-29 -20 -11 -1 4 -5 27 -10 52 -13 69 -2 75 59 33z m1539 -9 c42 -29 18 -104
-33 -104 -13 0 -33 8 -45 18 l-23 18 29 42 c32 46 40 49 72 26z m-1630 -56
c42 -55 42 -80 0 -41 -17 16 -20 16 -35 0 -13 -13 -14 -19 -5 -29 14 -14 16
-28 3 -28 -13 0 -75 80 -67 87 3 3 14 -1 24 -10 18 -16 20 -16 35 1 11 12 13
22 7 32 -5 8 -10 18 -10 23 0 17 18 4 48 -35z m1748 -43 c19 -30 11 -60 -22
-82 -52 -34 -105 28 -70 82 22 34 70 34 92 0z m-1853 -49 c46 -18 67 -44 28
-33 -26 6 -54 -24 -45 -48 5 -13 3 -16 -7 -13 -16 5 -52 95 -43 109 3 6 9 9
12 7 4 -2 28 -11 55 -22z m1919 -12 c3 -3 2 -21 -4 -41 -12 -45 -4 -52 27 -23
38 35 31 3 -7 -37 -51 -52 -68 -43 -49 25 11 36 2 41 -24 12 -10 -11 -22 -17
-27 -14 -6 4 7 24 28 45 38 39 46 44 56 33z m-1997 -69 c22 -18 36 -37 32 -41
-4 -4 -15 0 -25 9 -26 24 -36 21 -18 -5 20 -29 21 -52 1 -44 -51 21 -51 21
-31 -2 11 -12 17 -25 13 -28 -7 -7 -87 57 -87 69 0 14 26 18 53 8 31 -12 33
-9 11 24 -14 22 -12 46 4 45 4 -1 25 -16 47 -35z m2104 -56 c27 -36 20 -53 -7
-19 -11 14 -24 20 -31 16 -9 -6 -8 -13 5 -27 23 -25 10 -37 -15 -15 -28 25
-45 11 -25 -20 9 -13 14 -27 11 -30 -5 -6 -47 44 -47 56 0 10 68 70 78 70 5 0
18 -14 31 -31z m65 -88 c18 -20 14 -67 -5 -55 -5 3 -7 9 -4 14 7 11 -5 40 -16
40 -5 0 -8 -19 -7 -42 3 -40 1 -43 -24 -46 -22 -3 -30 2 -39 22 -12 26 -7 56
10 56 5 0 9 -12 8 -27 -1 -19 3 -28 13 -28 11 0 14 9 12 32 -6 55 19 70 52 34z
m-2246 -16 c7 -3 10 -10 7 -16 -4 -6 -13 -8 -20 -5 -20 7 -38 -20 -31 -49 10
-38 -7 -30 -43 20 -43 61 -37 75 26 64 26 -5 54 -11 61 -14z m2292 -67 c0 -13
-70 -58 -89 -58 -19 0 -12 16 12 29 12 6 33 18 47 26 31 18 30 18 30 3z
m-2420 -7 c0 -5 -9 -13 -20 -16 -11 -3 -20 -14 -20 -24 0 -44 72 -56 78 -13 4
23 -13 31 -21 10 -2 -7 -7 -10 -11 -6 -4 3 -3 16 4 27 9 17 15 19 30 11 47
-25 4 -108 -48 -95 -49 11 -65 52 -36 93 15 22 44 30 44 13z m2465 -71 c3 -5
-11 -27 -31 -50 -37 -41 -61 -52 -50 -24 10 26 -3 54 -25 54 -24 0 -25 17 -1
23 32 9 101 7 107 -3z m-2513 -50 c8 -12 24 -20 41 -20 16 0 26 -4 22 -10 -3
-5 -17 -10 -30 -10 -31 0 -43 -20 -22 -35 10 -7 17 -15 17 -19 0 -10 -18 -7
-60 12 -36 15 -40 20 -35 42 7 27 33 60 46 60 5 0 14 -9 21 -20z m18 -130 c0
-5 -6 -10 -13 -10 -19 0 -38 -45 -25 -58 6 -6 9 -15 6 -22 -2 -7 -24 7 -51 31
-27 23 -45 45 -40 50 18 16 123 25 123 9z m1350 -55 l0 -45 51 0 c47 0 53 3
91 45 26 29 49 45 65 45 12 0 23 -2 23 -5 0 -5 -34 -47 -62 -77 -17 -17 -16
-18 12 -33 27 -14 30 -20 30 -66 0 -47 -2 -50 -22 -47 -18 2 -24 11 -28 43 -6
49 -35 66 -105 63 l-50 -3 -3 -52 c-3 -49 -5 -53 -28 -53 l-24 0 0 115 0 115
25 0 c23 0 25 -4 25 -45z m382 28 c8 -10 32 -48 52 -85 21 -38 41 -68 45 -68
4 0 26 36 50 80 42 79 68 101 104 87 11 -4 67 -190 67 -219 0 -5 -10 -8 -23
-8 -21 0 -26 8 -42 78 -10 42 -22 83 -25 91 -5 8 -25 -18 -56 -74 -27 -48 -55
-90 -63 -93 -24 -9 -45 13 -93 99 -27 46 -48 82 -49 79 0 -3 -10 -43 -23 -90
-19 -72 -26 -86 -44 -88 -16 -2 -22 2 -22 15 0 27 42 186 53 201 14 18 51 15
69 -5z m596 0 c3 -10 -17 -13 -75 -13 -84 0 -127 -16 -101 -37 7 -6 46 -21 86
-33 118 -34 140 -81 56 -116 -40 -17 -204 -16 -204 1 0 6 40 12 89 15 136 8
149 41 28 75 -83 23 -117 42 -117 64 0 23 28 48 60 54 51 10 173 2 178 -10z
m132 -98 l0 -115 -25 0 -25 0 0 115 0 115 25 0 25 0 0 -115z m-2532 24 c27
-11 36 -31 28 -64 -5 -20 -13 -25 -39 -25 -42 0 -77 10 -77 22 0 5 21 8 48 6
41 -3 47 0 47 16 0 13 -10 22 -30 28 -16 5 -36 11 -43 14 -7 2 -10 9 -7 14 6
10 22 8 73 -11z m8 -165 c-7 -26 -26 -30 -85 -18 -52 11 -37 27 19 21 47 -6
50 -5 50 17 0 12 3 26 8 30 10 11 15 -21 8 -50z m2028 -20 c11 -4 16 -19 16
-45 0 -21 -2 -39 -5 -39 -3 0 -19 16 -36 35 -26 29 -38 35 -70 35 -79 0 -119
-51 -119 -153 0 -50 5 -71 23 -98 27 -41 62 -60 102 -57 28 3 30 6 33 50 3 44
1 48 -22 54 -49 12 -26 22 49 22 71 0 94 -9 59 -22 -12 -5 -15 -18 -12 -58 3
-48 1 -53 -22 -59 -40 -11 -156 -10 -187 2 -35 13 -71 46 -90 83 -20 39 -19
117 1 161 19 39 78 83 128 96 33 8 123 4 152 -7z m-524 -4 c0 -5 -7 -10 -15
-10 -24 0 -35 -35 -35 -117 0 -134 23 -184 84 -186 30 -1 44 5 62 27 22 25 24
36 24 136 0 122 -4 140 -31 140 -10 0 -19 5 -19 10 0 6 28 10 65 10 37 0 65
-4 65 -10 0 -5 -6 -10 -14 -10 -20 0 -26 -23 -26 -105 0 -167 -35 -225 -136
-225 -61 0 -108 19 -124 51 -6 11 -13 74 -16 140 -4 127 -7 139 -30 139 -8 0
-14 5 -14 10 0 6 33 10 80 10 47 0 80 -4 80 -10z m716 -17 c4 -16 27 -71 52
-123 l45 -95 44 90 c23 50 47 104 51 120 8 28 11 30 65 33 35 2 57 -1 57 -8 0
-5 -7 -10 -15 -10 -34 0 -43 -77 -28 -234 5 -55 10 -70 24 -73 39 -11 5 -23
-62 -23 -72 0 -83 6 -49 28 18 11 20 23 20 112 0 55 -3 100 -7 100 -7 0 -41
-72 -93 -193 -11 -27 -25 -47 -31 -45 -6 2 -23 33 -38 68 -52 124 -75 170 -83
170 -5 0 -7 -46 -6 -102 3 -95 5 -103 25 -114 33 -16 18 -24 -43 -24 -59 0
-75 12 -40 28 23 10 24 17 31 141 7 134 2 161 -31 161 -8 0 -14 5 -14 10 0 6
27 10 60 10 57 0 60 -1 66 -27z m-2326 -33 c0 -20 5 -30 15 -30 9 0 15 9 15
25 0 14 4 25 9 25 4 0 8 -12 7 -27 -1 -19 4 -28 14 -28 9 0 16 11 18 28 2 15
8 27 14 27 6 0 8 -10 4 -22 -3 -13 -6 -31 -6 -41 0 -15 -8 -18 -52 -15 l-53 3
-3 43 c-2 25 1 42 7 42 6 0 11 -13 11 -30z m90 -99 c0 -5 -11 -16 -25 -25 -28
-18 -25 -36 6 -36 10 0 19 -7 19 -15 0 -12 -13 -15 -55 -15 -30 0 -55 5 -55
10 0 6 9 10 20 10 26 0 25 8 -2 37 -25 27 -19 40 10 22 16 -10 24 -9 43 4 26
19 39 21 39 8z"/>
<path d="M1517 2276 c-6 -15 1 -26 15 -26 11 0 10 27 -1 34 -5 3 -11 0 -14 -8z"/>
<path d="M1240 2250 c0 -19 11 -26 23 -14 8 8 -3 34 -14 34 -5 0 -9 -9 -9 -20z"/>
<path d="M1846 2245 c-6 -17 3 -25 26 -25 10 0 18 6 18 14 0 18 -37 28 -44 11z"/>
<path d="M1967 2183 c-12 -11 -8 -23 8 -23 8 0 15 7 15 15 0 16 -12 20 -23 8z"/>
<path d="M730 2046 c0 -9 5 -16 10 -16 6 0 10 4 10 9 0 6 -4 13 -10 16 -5 3
-10 -1 -10 -9z"/>
<path d="M2260 2020 c-23 -32 -20 -50 9 -50 37 0 55 46 27 69 -11 9 -18 6 -36
-19z"/>
<path d="M2356 1944 c-20 -19 -20 -38 -2 -53 28 -23 73 19 60 54 -8 20 -38 19
-58 -1z"/>
<path d="M532 1889 c2 -7 10 -15 17 -17 8 -3 12 1 9 9 -2 7 -10 15 -17 17 -8
3 -12 -1 -9 -9z"/>
<path d="M336 1645 c7 -17 20 -20 28 -6 3 5 -1 12 -10 15 -22 9 -24 8 -18 -9z"/>
<path d="M2692 1499 c2 -6 8 -10 13 -10 5 0 11 4 13 10 2 6 -4 11 -13 11 -9 0
-15 -5 -13 -11z"/>
<path d="M200 1445 c-7 -9 -10 -18 -7 -21 10 -11 37 5 37 21 0 19 -14 19 -30
0z"/>
<path d="M170 1316 c0 -2 6 -9 14 -15 10 -9 15 -8 20 4 4 10 -1 15 -14 15 -11
0 -20 -2 -20 -4z"/>
</g>
</svg>
